# xmcd CD database file
#
# Track frame offsets:
#	150
#	22670
#	38510
#	57502
#	78210
#	94882
#	108552
#	128665
#	148902
#	173755
#	191867
#	205972
#	221980
#	237787
#	258527
#
# Disc length: 4072 seconds
#
# Revision: 0
# Processed by: cddbd v1.5.1PL2 Copyright (c) Steve Scherf et al.
# Submitted via: CDex 1.50beta10
#
DISCID=d60fe60f
DTITLE=オムニバス - Boogie With The Wizard
DYEAR=1997
DGENRE=Rock
TTITLE0=GET IT ON
TTITLE1=TILL DAWN
TTITLE2=20th CENTURY BOY
TTITLE3=RIP OFF
TTITLE4=SOLID GOLD EASY
TTITLE5=THE SLIDER
TTITLE6=JEEPSTER
TTITLE7=BY THE LIGHT OF THE MAGICAL MOON
TTITLE8=TEENAGE DREAM
TTITLE9=SOUND PIT
TTITLE10=JEWEL
TTITLE11=THE WIZARD
TTITLE12=METAL GURU
TTITLE13=THE GROOVER
TTITLE14=T.REX TRIBUTE MEDLEY
EXTD=YEAR: 1997
EXTT0=
EXTT1=
EXTT2=
EXTT3=
EXTT4=
EXTT5=
EXTT6=
EXTT7=
EXTT8=
EXTT9=
EXTT10=
EXTT11=
EXTT12=
EXTT13=
EXTT14=
PLAYORDER=
